<svg width="645" height="731" viewBox="0 0 645 731" fill="none" xmlns="http://www.w3.org/2000/svg">
<path fill-rule="evenodd" clip-rule="evenodd" d="M212.969 622.654C227.369 622.654 239.369 627.654 248.969 637.453C258.169 647.253 262.969 660.254 262.969 676.654C262.969 693.054 258.169 706.254 248.969 715.854C239.369 725.854 227.369 730.654 212.969 730.654C198.369 730.654 186.369 725.854 176.969 715.854C167.569 706.254 162.969 693.054 162.969 676.654C162.969 660.254 167.569 647.253 176.969 637.453C186.369 627.654 198.369 622.654 212.969 622.654ZM212.969 637.054C202.769 637.054 194.769 640.654 188.769 647.453C182.769 654.453 179.769 664.254 179.769 676.654C179.769 689.053 182.769 698.854 188.769 705.654C194.769 712.854 202.769 716.254 212.969 716.254C222.969 716.254 231.169 712.854 237.169 705.654C243.169 698.854 246.169 689.053 246.169 676.654C246.169 664.254 243.169 654.453 237.169 647.453C231.169 640.654 222.969 637.054 212.969 637.054Z" fill="black"/>
<path fill-rule="evenodd" clip-rule="evenodd" d="M327.031 622.654C341.431 622.654 353.431 627.654 363.031 637.453C372.231 647.253 377.031 660.254 377.031 676.654C377.031 693.054 372.231 706.254 363.031 715.854C353.431 725.854 341.431 730.654 327.031 730.654C312.431 730.654 300.431 725.854 291.031 715.854C281.631 706.254 277.031 693.054 277.031 676.654C277.031 660.254 281.631 647.253 291.031 637.453C300.431 627.654 312.431 622.654 327.031 622.654ZM327.031 637.054C316.831 637.054 308.831 640.654 302.831 647.453C296.831 654.453 293.831 664.254 293.831 676.654C293.831 689.054 296.831 698.854 302.831 705.654C308.831 712.854 316.831 716.254 327.031 716.254C337.031 716.254 345.231 712.854 351.231 705.654C357.231 698.854 360.231 689.054 360.231 676.654C360.231 664.254 357.231 654.453 351.231 647.453C345.231 640.654 337.031 637.054 327.031 637.054Z" fill="black"/>
<path fill-rule="evenodd" clip-rule="evenodd" d="M441.094 622.654C455.494 622.654 467.494 627.654 477.094 637.453C486.294 647.253 491.094 660.254 491.094 676.654C491.094 693.054 486.294 706.254 477.094 715.854C467.494 725.854 455.494 730.654 441.094 730.654C426.494 730.654 414.494 725.854 405.094 715.854C395.694 706.254 391.094 693.054 391.094 676.654C391.094 660.254 395.694 647.253 405.094 637.453C414.494 627.654 426.494 622.654 441.094 622.654ZM441.094 637.054C430.894 637.054 422.894 640.654 416.894 647.453C410.894 654.453 407.894 664.254 407.894 676.654C407.894 689.054 410.894 698.854 416.894 705.654C422.894 712.854 430.894 716.254 441.094 716.254C451.094 716.254 459.294 712.854 465.294 705.654C471.294 698.854 474.294 689.054 474.294 676.654C474.294 664.254 471.294 654.453 465.294 647.453C459.294 640.654 451.094 637.054 441.094 637.054Z" fill="black"/>
<path fill-rule="evenodd" clip-rule="evenodd" d="M603.756 728.254H588.557V712.254C580.157 724.654 568.356 730.654 553.156 730.654C538.556 730.654 526.956 725.854 518.356 715.854C509.556 706.054 505.156 693.054 505.156 676.654C505.156 660.254 509.557 647.054 518.356 637.254C526.756 627.654 538.356 622.654 553.156 622.654C567.956 622.654 579.356 628.454 587.756 639.854V585.854H603.756V728.254ZM555.156 637.054C545.156 637.054 536.956 640.854 530.956 648.054C524.956 655.254 521.956 665.054 521.956 677.453C521.956 689.853 524.956 699.254 530.956 706.054C536.956 712.854 544.956 716.254 555.156 716.254C565.156 716.254 573.356 712.854 579.356 705.654C585.356 698.854 588.356 689.054 588.356 676.654C588.356 664.454 585.356 654.854 579.356 647.654C573.356 640.654 565.156 637.054 555.156 637.054Z" fill="black"/>
<path d="M108.6 622.654C119.799 622.654 128.4 626.054 134.6 632.453C140.8 638.853 144 647.454 144 658.254V728.254H128V659.854C128 644.654 120.8 637.054 106.4 637.054C98.8004 637.054 92.4004 640.254 87.4004 646.254C82.4004 652.254 80 660.854 80 671.854V728.254H64V659.854C64 644.654 56.8001 637.054 42.4004 637.054C34.8004 637.054 28.5996 640.254 23.5996 646.254C18.3999 652.254 16 660.854 16 671.854V728.254H0V625.054H15.2002V640.254C22.0002 628.654 31.8 622.654 45 622.654C60.4 622.654 70.9998 629.254 76.7998 642.054C83.9997 629.254 94.5998 622.654 108.6 622.654Z" fill="black"/>
<path d="M644.935 728.254H624.734V708.254H644.935V728.254Z" fill="black"/>
<path d="M643.334 625.054L639.734 691.054H629.334L626.534 625.054V585.854H643.334V625.054Z" fill="black"/>
<path fill-rule="evenodd" clip-rule="evenodd" d="M554.749 11.9447C581.383 -13.9048 626 4.96764 626 42.0833V389.317C626 458.246 543.141 493.296 493.677 445.289L436.814 390.102L394.679 479.823C366.88 539.014 282.961 539.777 254.09 481.102L208.949 389.361L151.323 445.289C101.859 493.296 19 458.246 19 389.317V42.0833C19.0003 4.96764 63.6166 -13.9048 90.251 11.9447L322.5 237.35L554.749 11.9447ZM231.578 367.399L281.008 467.857C298.774 503.965 350.418 503.496 367.524 467.071L414.047 368.006L322.5 279.157L231.578 367.399ZM49 389.317C49 431.735 99.9904 453.304 130.43 423.762L195.027 361.067L49 64.2864V389.317ZM450.301 361.386L514.57 423.762C545.01 453.304 596 431.735 596 389.317V51.1478L450.301 361.386ZM344.038 258.253L427.533 339.289L567.4 41.47L344.038 258.253ZM217.656 339.104L300.961 258.253L69.3574 33.472C68.3677 32.5115 67.2902 31.7688 66.166 31.2239L217.656 339.104Z" fill="black"/>
</svg>
